<?xml version="1.0" standalone="no"?>
<!DOCTYPE svg PUBLIC "-//W3C//DTD SVG 20010904//EN"
 "http://www.w3.org/TR/2001/REC-SVG-20010904/DTD/svg10.dtd">
<svg version="1.0" xmlns="http://www.w3.org/2000/svg"
 width="512.000000pt" height="512.000000pt" viewBox="0 0 512.000000 512.000000"
 preserveAspectRatio="xMidYMid meet">
<metadata>
Created by potrace 1.14, written by Peter Selinger 2001-2017
</metadata>
<g transform="translate(0.000000,512.000000) scale(0.100000,-0.100000)"
fill="#000000" stroke="none">
<path d="M2365 5113 c-528 -45 -1032 -249 -1432 -580 -368 -305 -654 -721
-802 -1168 -92 -280 -126 -493 -126 -805 0 -312 34 -526 126 -805 53 -159 173
-417 255 -545 261 -410 602 -720 1029 -936 552 -278 1170 -346 1776 -194 469
118 921 388 1250 747 590 644 811 1519 599 2363 -83 331 -250 669 -465 945
-490 627 -1248 993 -2035 983 -74 -1 -153 -3 -175 -5z m-1333 -1140 c120 -120
218 -222 218 -226 0 -5 -22 -34 -49 -65 -211 -246 -370 -628 -397 -959 l-7
-83 -313 0 -314 0 0 58 c0 136 48 399 106 583 69 218 173 432 304 624 69 100
217 285 229 285 3 0 104 -98 223 -217z m3358 135 c95 -110 233 -317 302 -453
154 -302 225 -560 263 -952 l6 -63 -319 0 -319 0 -12 100 c-39 348 -169 663
-379 920 l-69 85 221 223 c121 122 224 222 228 222 4 0 39 -37 78 -82z m-1491
11 c246 -54 495 -177 694 -344 l36 -31 -222 -222 -223 -223 -84 57 c-124 83
-247 132 -384 155 l-76 12 0 315 0 315 82 -7 c45 -4 125 -16 177 -27z m-1121
-1000 c-85 -120 -145 -264 -168 -406 l-12 -73 -315 0 -316 0 7 83 c22 284 141
578 334 826 l65 83 225 -225 225 -225 -45 -63z m2103 336 c158 -233 238 -458
273 -767 l6 -48 -320 0 -319 0 -7 38 c-28 168 -73 287 -155 412 l-61 92 223
225 224 224 38 -43 c21 -24 65 -83 98 -133z m-1131 -118 c207 -57 374 -178
487 -353 156 -243 161 -577 12 -831 -44 -75 -207 -238 -282 -282 -256 -150
-577 -145 -829 12 -87 54 -217 186 -267 271 -151 256 -144 591 18 838 121 184
315 314 536 357 67 13 257 6 325 -12z m-1946 -939 c27 -329 176 -693 389 -952
32 -38 57 -71 57 -75 0 -3 -99 -105 -220 -226 l-221 -220 -34 40 c-272 312
-464 684 -550 1062 -28 125 -55 320 -55 399 l0 54 314 0 313 0 7 -82z m801 35
c19 -141 88 -313 171 -430 l47 -65 -225 -225 -225 -225 -65 83 c-191 246 -313
548 -335 831 l-6 78 316 0 316 0 6 -47z m2550 15 c-21 -169 -29 -215 -50 -294
-32 -118 -65 -203 -119 -312 -49 -98 -145 -245 -203 -310 l-38 -43 -224 225
-224 225 52 75 c28 41 65 104 81 138 31 67 80 226 80 262 0 11 3 31 6 44 l6
22 319 0 318 0 -4 -32z m800 -5 c-2 -21 -7 -73 -10 -117 -35 -462 -267 -995
-588 -1351 l-46 -50 -224 224 -225 223 66 82 c217 269 343 570 383 919 l13
107 318 0 318 0 -5 -37z m-2952 -667 c121 -86 286 -152 425 -171 l52 -7 0
-315 0 -316 -78 6 c-288 22 -606 153 -850 350 l-63 51 223 223 c123 123 224
223 226 223 2 0 31 -20 65 -44z m1406 -180 l223 -223 -83 -65 c-113 -88 -184
-132 -303 -189 -170 -81 -344 -130 -523 -147 l-83 -8 0 317 0 317 73 12 c146
25 305 92 414 175 25 19 49 35 52 35 3 0 107 -101 230 -224z m781 -788 c0 -4
-44 -43 -97 -88 -380 -317 -868 -515 -1350 -548 l-103 -7 0 316 0 316 78 7
c203 19 423 80 608 171 123 60 292 169 369 239 l50 45 223 -222 c122 -122 222
-225 222 -229z m-2686 341 c261 -197 584 -321 899 -346 l77 -6 0 -313 0 -314
-54 0 c-138 0 -425 54 -606 113 -281 93 -561 248 -795 442 l-96 79 222 222
c219 219 223 223 244 206 12 -9 61 -47 109 -83z"/>
</g>
</svg>
